<svg id="visual" viewBox="0 0 900 600" width="900" height="600" xmlns="http://www.w3.org/2000/svg" xmlns:xlink="http://www.w3.org/1999/xlink" version="1.1"><rect x="0" y="0" width="900" height="600" fill="#001220"></rect><defs><linearGradient id="grad1_0" x1="33.3%" y1="0%" x2="100%" y2="100%"><stop offset="20%" stop-color="#001220" stop-opacity="1"></stop><stop offset="80%" stop-color="#001220" stop-opacity="1"></stop></linearGradient></defs><defs><linearGradient id="grad2_0" x1="0%" y1="0%" x2="66.7%" y2="100%"><stop offset="20%" stop-color="#001220" stop-opacity="1"></stop><stop offset="80%" stop-color="#001220" stop-opacity="1"></stop></linearGradient></defs><g transform="translate(900, 0)"><path d="M0 459.7C-52.3 431.9 -104.5 404 -158.8 383.4C-213.1 362.8 -269.5 349.5 -316.8 316.8C-364.1 284.1 -402.4 232 -424.7 175.9C-447 119.9 -453.4 59.9 -459.7 0L0 0Z" fill="#98141C"></path></g><g transform="translate(0, 600)"><path d="M0 -459.7C56.4 -430.5 112.9 -401.4 151.5 -365.9C190.2 -330.4 211.1 -288.5 260.2 -260.2C309.4 -231.9 386.8 -217 424.7 -175.9C462.7 -134.8 461.2 -67.4 459.7 0L0 0Z" fill="#98141C"></path></g></svg>