<svg id="visual" viewBox="0 0 900 600" width="900" height="600" xmlns="http://www.w3.org/2000/svg" xmlns:xlink="http://www.w3.org/1999/xlink" version="1.1"><rect x="0" y="0" width="900" height="600" fill="#001220"></rect><defs><linearGradient id="grad1_0" x1="33.3%" y1="0%" x2="100%" y2="100%"><stop offset="20%" stop-color="#001220" stop-opacity="1"></stop><stop offset="80%" stop-color="#001220" stop-opacity="1"></stop></linearGradient></defs><defs><linearGradient id="grad2_0" x1="0%" y1="0%" x2="66.7%" y2="100%"><stop offset="20%" stop-color="#001220" stop-opacity="1"></stop><stop offset="80%" stop-color="#001220" stop-opacity="1"></stop></linearGradient></defs><g transform="translate(900, 0)"><path d="M0 351.5C-39 323.7 -78 295.8 -114 275.3C-150.1 254.9 -183.3 241.9 -221.3 221.3C-259.4 200.8 -302.3 172.7 -324.8 134.5C-347.3 96.4 -349.4 48.2 -351.5 0L0 0Z" fill="#98141C"></path></g><g transform="translate(0, 600)"><path d="M0 -351.5C40.1 -326.2 80.2 -300.9 116 -279.9C151.7 -259 183.1 -242.3 220.6 -220.6C258.2 -198.9 301.9 -172.1 324.8 -134.5C347.6 -96.9 349.6 -48.5 351.5 0L0 0Z" fill="#98141C"></path></g></svg>